inDegrees=yes
name=ik_Shooting_orientation_zug2
DataType=double
version=3
OpenSimVersion=4.3-2021-08-27-4bc7ad9
endheader
time	pelvis_tilt	pelvis_list	pelvis_rotation	pelvis_tx	pelvis_ty	pelvis_tz	hip_flexion_r	hip_adduction_r	hip_rotation_r	knee_angle_r	knee_angle_r_beta	ankle_angle_r	subtalar_angle_r	mtp_angle_r	hip_flexion_l	hip_adduction_l	hip_rotation_l	knee_angle_l	knee_angle_l_beta	ankle_angle_l	subtalar_angle_l	mtp_angle_l	lumbar_extension	lumbar_bending	lumbar_rotation	arm_flex_r	arm_add_r	arm_rot_r	elbow_flex_r	pro_sup_r	wrist_flex_r	wrist_dev_r	arm_flex_l	arm_add_l	arm_rot_l	elbow_flex_l	pro_sup_l	wrist_flex_l	wrist_dev_l
5	-0.1205262526430603	-0.8457956798629096	147.5574502671144	0	0.9399999999999999	0	42.44623655761707	-10.29914995161125	0	59.31678094366902	1.035273129151254	-5.102838620831481	0	0	42.44623655761707	-10.29914995161125	0	59.31678094366902	1.035273129151254	-5.102838620831481	0	0	2.188254188257921	-0.06372032856454604	-3.672119465163959	13.95919867919447	27.6471846877179	34.97850911090153	0.004800675980005597	46.05578939108454	0	0	0	-10.91963981627572	0	76.1300672536708	46.05578939108454	0	0
5.01	-0.096755975702427	-0.8355768650442533	147.5602963534299	0	0.9399999999999999	0	42.44667650966267	-10.29897061488027	0	59.31687349294466	1.035274744440834	-5.102758246254227	0	0	42.44667650966267	-10.29897061488027	0	59.31687349294466	1.035274744440834	-5.102758246254227	0	0	2.214459917982373	-0.01784147896637268	-3.680377915844374	13.95979642230462	28.17771118121702	34.81685209647118	0.004743597483057266	46.05528823599933	0	0	0	-10.92000046454277	0	76.12987278020495	46.05528823599933	0	0
5.02	-0.1160232521795113	-0.8466219480649434	147.5742858768599	0	0.9399999999999999	0	42.44753797783508	-10.29861799479158	0	59.31705400595311	1.035277894987174	-5.102600111792309	0	0	42.44753797783508	-10.29861799479158	0	59.31705400595311	1.035277894987174	-5.102600111792309	0	0	2.191972449341482	-0.05498467816820405	-3.678897303065558	15.1842534877928	27.74794939343614	34.50560089428332	0.004605678363880867	46.05430347226699	0	0	0	-10.92070474696449	0	76.12949198522439	46.05430347226699	0	0
5.03	-0.1335687237376346	-0.865415867970637	147.5698500015614	0	0.9399999999999999	0	42.47213601494658	-10.28916132920584	0	59.32242927775017	1.035371711178222	-5.098452230028232	0	0	42.47213601494658	-10.28916132920584	0	59.32242927775017	1.035371711178222	-5.098452230028232	0	0	2.175532877151007	-0.06701676135712668	-3.665380907530483	16.82922809751657	27.87186687987524	35.54615908986521	0.004339842600248555	46.02746707438044	0	0	0	-10.94125632369554	0	76.1186182836573	46.02746707438044	0	0
5.04	-0.1198266456030907	-0.8648356027899784	147.5852978919771	0	0.9399999999999999	0	42.47287356962185	-10.28886694889761	0	59.32258437250623	1.035374418092368	-5.098321497611259	0	0	42.47287356962185	-10.28886694889761	0	59.32258437250623	1.035374418092368	-5.098321497611259	0	0	2.20565557165022	-0.06070213033776051	-3.684593861142559	17.05856966478592	28.40343579296013	35.11453531356786	0.004283305013310225	46.0266392373709	0	0	0	-10.94186291380158	0	76.11829225232177	46.0266392373709	0	0
5.05	-0.1275882438202129	-0.8712388939932405	147.5730990286813	0	0.9399999999999999	0	42.47391668704416	-10.28844967871484	0	59.32280317640974	1.0353782369409	-5.098136151694808	0	0	42.47391668704416	-10.28844967871484	0	59.32280317640974	1.0353782369409	-5.098136151694808	0	0	2.20463321504303	-0.06823239478443836	-3.655303682348681	17.58504539493097	28.11847908971095	34.2735478316202	0.004262778363222959	46.02546614845449	0	0	0	-10.94271938961444	0	76.11783115074017	46.02546614845449	0	0
5.06	-0.1121457586961048	-0.8764253876171774	147.5797271240983	0	0.9399999999999999	0	42.47491815693922	-10.28805014998542	0	59.32301356543978	1.035381908922185	-5.097958817290517	0	0	42.47491815693922	-10.28805014998542	0	59.32301356543978	1.035381908922185	-5.097958817290517	0	0	2.222053631526892	-0.06925007340030252	-3.630014275222953	17.97647478679029	27.95698549643841	33.8800127852391	0.004237205401665443	46.02434228389055	0	0	0	-10.94354267515446	0	76.11738845741438	46.02434228389055	0	0
5.07	-0.1212502355454875	-0.8826837560497004	147.602815200296	0	0.9399999999999999	0	42.47574153932095	-10.28772227984724	0	59.32318669034396	1.03538493052178	-5.097813372179686	0	0	42.47574153932095	-10.28772227984724	0	59.32318669034396	1.03538493052178	-5.097813372179686	0	0	2.222241815987164	-0.07086939395335561	-3.655388333399879	18.56429746345366	27.75786593111255	33.90227458825956	0.004176045806440432	46.02341959460375	0	0	0	-10.94422005463811	0	76.11702448562858	46.02341959460375	0	0
5.08	-0.1303890775172493	-0.8878772658729767	147.6108749615601	0	0.9399999999999999	0	42.47591309185582	-10.28765537267829	0	59.32322336136547	1.035385570551845	-5.097783811871249	0	0	42.47591309185582	-10.28765537267829	0	59.32322336136547	1.035385570551845	-5.097783811871249	0	0	2.243035303963819	-0.07959798088148924	-3.626585011684556	18.54338539516477	27.68961354343575	34.00121263579339	0.004174345526437111	46.02323061152494	0	0	0	-10.94436286840845	0	76.11694864931455	46.02323061152494	0	0
5.09	-0.1247867068563554	-0.907011482577176	147.6222270759707	0	0.9399999999999999	0	42.47648039002296	-10.28742951972607	0	59.32334258278066	1.035387651358079	-5.097683647048417	0	0	42.47648039002296	-10.28742951972607	0	59.32334258278066	1.035387651358079	-5.097683647048417	0	0	2.251763193760484	-0.09785565872474095	-3.64479628873467	19.48084108852788	27.13233891068126	34.70387214275143	0.004085693204899307	46.02259492917964	0	0	0	-10.94482946073208	0	76.1166978782275	46.02259492917964	0	0
5.1	-0.1172380410202228	-0.903275558612574	147.6243465879764	0	0.9399999999999999	0	42.47747819252855	-10.28703336721933	0	59.32355265728621	1.035391317849876	-5.097508072942576	0	0	42.47747819252855	-10.28703336721933	0	59.32355265728621	1.035391317849876	-5.097508072942576	0	0	2.241448561066836	-0.08434795924480236	-3.620244504999156	19.8524219145969	26.9955850433042	34.60933686898759	0.004055329987500732	46.02147930987665	0	0	0	-10.94565127579875	0	76.11625680321366	46.02147930987665	0	0
5.11	-0.09769846938909324	-0.9164052148738766	147.6456667452813	0	0.9399999999999999	0	42.478122563318	-10.28677742432868	0	59.3236881811273	1.035393683187118	-5.097394654806076	0	0	42.478122563318	-10.28677742432868	0	59.3236881811273	1.035393683187118	-5.097394654806076	0	0	2.26594661375142	-0.08186809991545806	-3.65037025176122	20.06341309986182	26.66482533281961	34.55050081825816	0.004054686043923494	46.02075851589197	0	0	0	-10.94618166482152	0	76.11597196175546	46.02075851589197	0	0
5.12	-0.0978480836226279	-0.9335447904689701	147.6403448302387	0	0.9399999999999999	0	42.47844865800445	-10.28664940939936	0	59.32375740660505	1.035394891399631	-5.09733805687199	0	0	42.47844865800445	-10.28664940939936	0	59.32375740660505	1.035394891399631	-5.09733805687199	0	0	2.291154806672911	-0.07396483124798858	-3.628841493118184	20.24340354183727	26.58584118373179	34.75203100567025	0.004036452517912403	46.02039724641001	0	0	0	-10.94645187981824	0	76.11582781032666	46.02039724641001	0	0
5.13	-0.1047717786248424	-0.9267998361994088	147.6660513363113	0	0.9399999999999999	0	42.5102637840888	-10.27497938220147	0	59.33074257482593	1.035516805583891	-5.092319212047251	0	0	42.5102637840888	-10.27497938220147	0	59.33074257482593	1.035516805583891	-5.092319212047251	0	0	2.265142239406106	-0.07755082412051517	-3.63840263187896	19.17106520752056	25.21641157685465	36.04020354743809	0.004246761685140417	45.98681798213632	0	0	0	-10.97323279452771	0	76.10176310763072	45.98681798213632	0	0
5.14	-0.1121979949908848	-0.9292215348279951	147.6567812533448	0	0.9399999999999999	0	42.54445984440859	-10.2653860990694	0	59.33979886952385	1.0356748677444	-5.088391912854092	0	0	42.54445984440859	-10.2653860990694	0	59.33979886952385	1.0356748677444	-5.088391912854092	0	0	2.25523587911124	-0.08808421631866103	-3.610283664769127	8.116187068095401	10.59079257966897	43.39784752012101	0.01051567808430416	45.95789360967778	0	0	0	-11.00638814902932	0	76.08663967160975	45.95789360967778	0	0
5.15	-0.1175875732396477	-0.9390071486656351	147.6620885517768	0	0.9399999999999999	0	42.55775298816811	-10.26181504407412	0	59.34330703522578	1.035736096786604	-5.086952692742169	0	0	42.55775298816811	-10.26181504407412	0	59.34330703522578	1.035736096786604	-5.086952692742169	0	0	2.251186195437279	-0.09944768160604466	-3.610429443006889	4.848149605979055	0.2587027099712745	47.24623346245065	0.04948157717739925	45.94700055808693	0	0	0	-11.01939856906772	0	76.08076052282061	45.94700055808693	0	0
5.16	-0.1060753032330836	-0.9488827714389323	147.6731597769357	0	0.9399999999999999	0	42.55856328177213	-10.26151109609277	0	59.34347757196592	1.035739073214216	-5.08682096081132	0	0	42.55856328177213	-10.26151109609277	0	59.34347757196592	1.035739073214216	-5.08682096081132	0	0	2.262602379964537	-0.09927461870938876	-3.611873960824623	5.168176678461272	-1.262264916354981	47.26653373943456	0.07026885526599312	45.94613092914778	0	0	0	-11.02007394091511	0	76.08040230994605	45.94613092914778	0	0
5.17	-0.09540732484541328	-0.9569759496166924	147.680608056319	0	0.9399999999999999	0	42.55944220822722	-10.26118194140686	0	59.34366268653289	1.035742304072903	-5.086678377209062	0	0	42.55944220822722	-10.26118194140686	0	59.34366268653289	1.035742304072903	-5.086678377209062	0	0	2.272347592408801	-0.08482926882544239	-3.626496117143695	5.920051249899321	-0.6682427089980354	46.91486876426862	0.0447732449748148	45.94518881915743	0	0	0	-11.02080697769663	0	76.08001375521933	45.94518881915743	0	0
5.18	-0.07553162126595965	-0.965264991992686	147.6812792742066	0	0.9399999999999999	0	42.55992382835223	-10.26100236752848	0	59.34376443289862	1.035744079881986	-5.086600667586617	0	0	42.55992382835223	-10.26100236752848	0	59.34376443289862	1.035744079881986	-5.086600667586617	0	0	2.293969725262379	-0.07143121309676069	-3.609787490603961	6.427365861582176	-0.6243531131226828	47.05313538030914	0.03899720541885647	45.94467440243992	0	0	0	-11.02120956721117	0	76.07980083989942	45.94467440243992	0	0
5.19	-0.0861941732362517	-0.9846302367257169	147.6870993308762	0	0.9399999999999999	0	42.56038510185373	-10.26082994019128	0	59.34386164054543	1.035745776475481	-5.086526023599133	0	0	42.56038510185373	-10.26082994019128	0	59.34386164054543	1.035745776475481	-5.086526023599133	0	0	2.288730979771441	-0.09406956973427674	-3.620199070775463	6.670570134742603	-1.06595645103992	47.07206311258494	0.04065308162641418	45.94418064736629	0	0	0	-11.02159449665312	0	76.07959692025335	45.94418064736629	0	0
5.2	-0.07488926961288039	-0.9905981350486028	147.6736933895236	0	0.9399999999999999	0	42.56083628463382	-10.26066134500864	0	59.34395671398207	1.035747435819982	-5.086453052289284	0	0	42.56083628463382	-10.26066134500864	0	59.34395671398207	1.035747435819982	-5.086453052289284	0	0	2.297420777527239	-0.08362865548862482	-3.610688539757974	6.905881135701425	-1.266113790963962	47.29890951608947	0.03990007186880479	45.94369780680037	0	0	0	-11.02197100791938	0	76.07939746145502	45.94369780680037	0	0
5.21	-0.08595281497201709	-0.9830080681972552	147.6886570498008	0	0.9399999999999999	0	42.5616511592814	-10.26035672106434	0	59.34412830284435	1.035750430610588	-5.086321210869968	0	0	42.5616511592814	-10.26035672106434	0	59.34412830284435	1.035750430610588	-5.086321210869968	0	0	2.280939323085689	-0.07522585768882459	-3.615126739798953	7.574856750123726	-1.387121133769988	46.7495610357163	0.03451843358601108	45.94282540408216	0	0	0	-11.02265073078926	0	76.07903722209808	45.94282540408216	0	0
5.22	-0.09383640693507672	-0.9882425546134915	147.6925830062316	0	0.9399999999999999	0	42.56851586864068	-10.25851622320926	0	59.34592930744526	1.035781864070718	-5.085580771514893	0	0	42.56851586864068	-10.25851622320926	0	59.34592930744526	1.035781864070718	-5.085580771514893	0	0	2.298374662556405	-0.06678095177808556	-3.610656103419406	9.379352727151016	-2.293613440060511	45.23290026766416	0.02711149696965803	45.93720532456272	0	0	0	-11.02936282695681	0	76.07600117980168	45.93720532456272	0	0
5.23	-0.1010879487579538	-0.9923891194109771	147.6975122032019	0	0.9399999999999999	0	42.57890179071759	-10.25577753659774	0	59.34868388253836	1.035829940475586	-5.084483131407808	0	0	42.57890179071759	-10.25577753659774	0	59.34868388253836	1.035829940475586	-5.084483131407808	0	0	2.297304204900428	-0.06991005911116126	-3.608075549660315	10.3366700238023	-4.018887325328468	42.73818043396144	0.02803178175611886	45.92881507501919	0	0	0	-11.03959240828641	0	76.0714077195838	45.92881507501919	0	0
